<svg width="48" height="48" viewBox="0 0 48 48" fill="none" xmlns="http://www.w3.org/2000/svg">
<rect width="48" height="48" fill="#C9C9C9"/>
<rect x="-1093" y="-1035" width="1728" height="2434" rx="18" fill="white"/>
<g filter="url(#filter0_bii_0_1)">
<g clip-path="url(#clip0_0_1)">
<rect width="1168" height="336" transform="translate(-814 -64)" fill="#F4F3F0"/>
<g clip-path="url(#clip1_0_1)">
<rect x="-32" y="-32" width="360" height="181" rx="12" fill="#F4F3F0"/>
<mask id="mask0_0_1" style="mask-type:alpha" maskUnits="userSpaceOnUse" x="-32" y="-63" width="672" height="212">
<g clip-path="url(#clip2_0_1)">
<line x1="15.5" y1="149" x2="15.5" y2="-63" stroke="white"/>
</g>
</mask>
<g mask="url(#mask0_0_1)">
<mask id="mask1_0_1" style="mask-type:luminance" maskUnits="userSpaceOnUse" x="-32" y="-63" width="672" height="212">
<rect x="640" y="149" width="672" height="212" rx="0.01" transform="rotate(180 640 149)" fill="url(#paint0_linear_0_1)"/>
</mask>
<g mask="url(#mask1_0_1)">
<rect width="672" height="212" transform="matrix(-1 0 0 -1 640 149)" fill="#131416" fill-opacity="0.08"/>
</g>
</g>
<path fill-rule="evenodd" clip-rule="evenodd" d="M43.3228 9.37246L38.6275 4.6772C37.7246 3.77427 36.4605 3.77427 35.5576 4.6772L24 16.2348L12.4424 4.6772C11.5395 3.77427 10.0948 3.77427 9.37246 4.6772L4.6772 9.37246C3.77427 10.0948 3.77427 11.5395 4.6772 12.4424L16.2348 24L4.6772 35.5576C3.77427 36.4605 3.77427 37.7246 4.6772 38.6275L9.37246 43.3228C10.0948 44.2257 11.5395 44.2257 12.4424 43.3228L24 31.7652L35.5576 43.3228C36.4605 44.2257 37.7246 44.2257 38.6275 43.3228L43.3228 38.6275C44.2257 37.7246 44.2257 36.4605 43.3228 35.5576L31.7652 24L43.3228 12.4424C44.2257 11.5395 44.2257 10.0948 43.3228 9.37246Z" fill="black"/>
</g>
<rect x="-31.5" y="-31.5" width="359" height="180" rx="11.5" stroke="black" stroke-opacity="0.1"/>
</g>
<rect x="-813.5" y="-130.5" width="1169" height="402" rx="11.5" stroke="url(#paint1_linear_0_1)" stroke-opacity="0.1"/>
</g>
<defs>
<filter id="filter0_bii_0_1" x="-1133" y="-237" width="1808" height="615" filterUnits="userSpaceOnUse" color-interpolation-filters="sRGB">
<feFlood flood-opacity="0" result="BackgroundImageFix"/>
<feGaussianBlur in="BackgroundImageFix" stdDeviation="20"/>
<feComposite in2="SourceAlpha" operator="in" result="effect1_backgroundBlur_0_1"/>
<feBlend mode="normal" in="SourceGraphic" in2="effect1_backgroundBlur_0_1" result="shape"/>
<feColorMatrix in="SourceAlpha" type="matrix" values="0 0 0 0 0 0 0 0 0 0 0 0 0 0 0 0 0 0 127 0" result="hardAlpha"/>
<feOffset dy="1"/>
<feGaussianBlur stdDeviation="0.5"/>
<feComposite in2="hardAlpha" operator="arithmetic" k2="-1" k3="1"/>
<feColorMatrix type="matrix" values="0 0 0 0 1 0 0 0 0 1 0 0 0 0 1 0 0 0 0.25 0"/>
<feBlend mode="normal" in2="shape" result="effect2_innerShadow_0_1"/>
<feColorMatrix in="SourceAlpha" type="matrix" values="0 0 0 0 0 0 0 0 0 0 0 0 0 0 0 0 0 0 127 0" result="hardAlpha"/>
<feOffset dy="-1"/>
<feGaussianBlur stdDeviation="0.5"/>
<feComposite in2="hardAlpha" operator="arithmetic" k2="-1" k3="1"/>
<feColorMatrix type="matrix" values="0 0 0 0 1 0 0 0 0 1 0 0 0 0 1 0 0 0 0.25 0"/>
<feBlend mode="normal" in2="effect2_innerShadow_0_1" result="effect3_innerShadow_0_1"/>
</filter>
<linearGradient id="paint0_linear_0_1" x1="976" y1="149" x2="976" y2="361" gradientUnits="userSpaceOnUse">
<stop stop-color="white"/>
<stop offset="1"/>
</linearGradient>
<linearGradient id="paint1_linear_0_1" x1="-229" y1="-131" x2="-229" y2="272" gradientUnits="userSpaceOnUse">
<stop stop-color="white"/>
<stop offset="1" stop-color="white" stop-opacity="0"/>
</linearGradient>
<clipPath id="clip0_0_1">
<rect x="-814" y="-131" width="1170" height="403" rx="12" fill="white"/>
</clipPath>
<clipPath id="clip1_0_1">
<rect x="-32" y="-32" width="360" height="181" rx="12" fill="white"/>
</clipPath>
<clipPath id="clip2_0_1">
<rect width="672" height="212" fill="white" transform="matrix(-1 0 0 -1 640 149)"/>
</clipPath>
</defs>
</svg>
