<svg width="48" height="49" viewBox="0 0 48 49" fill="none" xmlns="http://www.w3.org/2000/svg">
<rect width="48" height="49" fill="#C9C9C9"/>
<g id="Stxeco">
<rect x="-729" y="-664" width="1728" height="2434" rx="18" fill="white"/>
<g id="Proposal" filter="url(#filter0_bii_0_1)">
<g id="Wrapper">
<g id="Container">
<g clip-path="url(#clip0_0_1)">
<g id="frame">
<g clip-path="url(#clip1_0_1)">
<rect x="-32" y="-31.5" width="360" height="181" rx="18" fill="url(#paint0_linear_0_1)"/>
<g id="grid-base">
<mask id="mask0_0_1" style="mask-type:alpha" maskUnits="userSpaceOnUse" x="-32" y="-63" width="672" height="213">
<g id="grid-mask">
<g id="grid-shape" clip-path="url(#clip2_0_1)">
<g id="x">
<line id="Line 40" x1="15.5" y1="149.5" x2="15.5" y2="-62.5" stroke="white"/>
</g>
</g>
</g>
</mask>
<g mask="url(#mask0_0_1)">
<g id="mask">
<mask id="mask1_0_1" style="mask-type:luminance" maskUnits="userSpaceOnUse" x="-32" y="-63" width="672" height="213">
<g id="gradient-base-mask">
<g id="gradient-base">
<rect x="640" y="149.5" width="672" height="212" rx="0.01" transform="rotate(180 640 149.5)" fill="url(#paint1_linear_0_1)"/>
</g>
</g>
</mask>
<g mask="url(#mask1_0_1)">
<g id="grid-color">
<rect width="672" height="212" transform="matrix(-1 0 0 -1 640 149.5)" fill="#131416" fill-opacity="0.08"/>
</g>
</g>
</g>
</g>
</g>
<g id="coin">
<path id="Vector" d="M18.1048 40.9977L4.47473 26.8594C3.84176 26.2049 3.84176 25.0703 4.47473 24.4158L9.07436 19.6594C9.70734 19.0049 10.8045 19.0049 11.4375 19.6594L19.0332 27.5576L36.3346 8.0521C36.9675 7.35391 38.0225 7.31028 38.6977 7.96483L43.4661 12.503C44.1413 13.1576 44.1835 14.2485 43.5505 14.9467L20.5523 40.954C19.8772 41.6522 18.78 41.6959 18.1048 40.9977Z" fill="black"/>
</g>
</g>
</g>
</g>
<rect x="-449.5" y="-31" width="1169" height="180" rx="11.5" stroke="url(#paint2_linear_0_1)" stroke-opacity="0.1"/>
</g>
</g>
</g>
</g>
<defs>
<filter id="filter0_bii_0_1" x="-769" y="-599" width="1808" height="854.5" filterUnits="userSpaceOnUse" color-interpolation-filters="sRGB">
<feFlood flood-opacity="0" result="BackgroundImageFix"/>
<feGaussianBlur in="BackgroundImageFix" stdDeviation="20"/>
<feComposite in2="SourceAlpha" operator="in" result="effect1_backgroundBlur_0_1"/>
<feBlend mode="normal" in="SourceGraphic" in2="effect1_backgroundBlur_0_1" result="shape"/>
<feColorMatrix in="SourceAlpha" type="matrix" values="0 0 0 0 0 0 0 0 0 0 0 0 0 0 0 0 0 0 127 0" result="hardAlpha"/>
<feOffset dy="1"/>
<feGaussianBlur stdDeviation="0.5"/>
<feComposite in2="hardAlpha" operator="arithmetic" k2="-1" k3="1"/>
<feColorMatrix type="matrix" values="0 0 0 0 1 0 0 0 0 1 0 0 0 0 1 0 0 0 0.25 0"/>
<feBlend mode="normal" in2="shape" result="effect2_innerShadow_0_1"/>
<feColorMatrix in="SourceAlpha" type="matrix" values="0 0 0 0 0 0 0 0 0 0 0 0 0 0 0 0 0 0 127 0" result="hardAlpha"/>
<feOffset dy="-1"/>
<feGaussianBlur stdDeviation="0.5"/>
<feComposite in2="hardAlpha" operator="arithmetic" k2="-1" k3="1"/>
<feColorMatrix type="matrix" values="0 0 0 0 1 0 0 0 0 1 0 0 0 0 1 0 0 0 0.25 0"/>
<feBlend mode="normal" in2="effect2_innerShadow_0_1" result="effect3_innerShadow_0_1"/>
</filter>
<linearGradient id="paint0_linear_0_1" x1="-456.105" y1="-46.466" x2="-428.121" y2="312.447" gradientUnits="userSpaceOnUse">
<stop offset="0.0423184" stop-color="#FC6432"/>
<stop offset="0.311049" stop-color="#F3F2F0"/>
</linearGradient>
<linearGradient id="paint1_linear_0_1" x1="976" y1="149.5" x2="976" y2="361.5" gradientUnits="userSpaceOnUse">
<stop stop-color="white"/>
<stop offset="1"/>
</linearGradient>
<linearGradient id="paint2_linear_0_1" x1="135" y1="-31.5" x2="135" y2="149.5" gradientUnits="userSpaceOnUse">
<stop stop-color="white"/>
<stop offset="1" stop-color="white" stop-opacity="0"/>
</linearGradient>
<clipPath id="clip0_0_1">
<rect x="-450" y="-31.5" width="1170" height="181" rx="12" fill="white"/>
</clipPath>
<clipPath id="clip1_0_1">
<rect x="-32" y="-31.5" width="360" height="181" rx="18" fill="white"/>
</clipPath>
<clipPath id="clip2_0_1">
<rect width="672" height="212" fill="white" transform="matrix(-1 0 0 -1 640 149.5)"/>
</clipPath>
</defs>
</svg>
